<mxfile host="app.diagrams.net" agent="Mozilla/5.0 (Windows NT 10.0; Win64; x64) AppleWebKit/537.36 (KHTML, like Gecko) Chrome/140.0.0.0 Safari/537.36" version="28.2.5">
  <diagram name="Page-1" id="g1Q1U6r0D70agq8dSMTq">
    <mxGraphModel dx="2131" dy="1723" grid="1" gridSize="10" guides="1" tooltips="1" connect="1" arrows="1" fold="1" page="1" pageScale="1" pageWidth="850" pageHeight="1100" math="0" shadow="0">
      <root>
        <mxCell id="0" />
        <mxCell id="1" parent="0" />
        <mxCell id="udi-sgrB4QxTy8UD9Pej-26" style="edgeStyle=orthogonalEdgeStyle;rounded=0;orthogonalLoop=1;jettySize=auto;html=1;exitX=0.5;exitY=1;exitDx=0;exitDy=0;" edge="1" parent="1" source="udi-sgrB4QxTy8UD9Pej-2">
          <mxGeometry relative="1" as="geometry">
            <mxPoint x="410" y="810" as="targetPoint" />
          </mxGeometry>
        </mxCell>
        <mxCell id="udi-sgrB4QxTy8UD9Pej-2" value="online shopping system" style="rounded=0;whiteSpace=wrap;html=1;" vertex="1" parent="1">
          <mxGeometry x="200" width="520" height="1260" as="geometry" />
        </mxCell>
        <mxCell id="udi-sgrB4QxTy8UD9Pej-39" value="&amp;lt;&amp;lt;include&amp;gt;&amp;gt;register account" style="edgeStyle=orthogonalEdgeStyle;rounded=0;orthogonalLoop=1;jettySize=auto;html=1;exitX=1;exitY=0.3333333333333333;exitDx=0;exitDy=0;exitPerimeter=0;" edge="1" parent="1" source="udi-sgrB4QxTy8UD9Pej-7" target="udi-sgrB4QxTy8UD9Pej-34">
          <mxGeometry relative="1" as="geometry" />
        </mxCell>
        <mxCell id="udi-sgrB4QxTy8UD9Pej-45" value="&amp;lt;&amp;lt;extend&amp;gt;&amp;gt;view products" style="edgeStyle=orthogonalEdgeStyle;rounded=0;orthogonalLoop=1;jettySize=auto;html=1;exitX=0.75;exitY=0.1;exitDx=0;exitDy=0;exitPerimeter=0;" edge="1" parent="1" source="udi-sgrB4QxTy8UD9Pej-7" target="udi-sgrB4QxTy8UD9Pej-36">
          <mxGeometry x="0.0916" y="-3" relative="1" as="geometry">
            <Array as="points">
              <mxPoint x="470" y="-93" />
              <mxPoint x="470" y="345" />
            </Array>
            <mxPoint as="offset" />
          </mxGeometry>
        </mxCell>
        <mxCell id="udi-sgrB4QxTy8UD9Pej-7" value="customer" style="shape=umlActor;verticalLabelPosition=bottom;verticalAlign=top;html=1;" vertex="1" parent="1">
          <mxGeometry x="-170" y="-170" width="30" height="70" as="geometry" />
        </mxCell>
        <mxCell id="udi-sgrB4QxTy8UD9Pej-60" style="edgeStyle=orthogonalEdgeStyle;rounded=0;orthogonalLoop=1;jettySize=auto;html=1;entryX=1;entryY=0.5;entryDx=0;entryDy=0;" edge="1" parent="1" source="udi-sgrB4QxTy8UD9Pej-9" target="udi-sgrB4QxTy8UD9Pej-25">
          <mxGeometry relative="1" as="geometry" />
        </mxCell>
        <mxCell id="udi-sgrB4QxTy8UD9Pej-9" value="admin" style="shape=umlActor;verticalLabelPosition=bottom;verticalAlign=top;html=1;" vertex="1" parent="1">
          <mxGeometry x="920" y="730" width="30" height="60" as="geometry" />
        </mxCell>
        <mxCell id="udi-sgrB4QxTy8UD9Pej-48" value="&amp;lt;&amp;lt;include&amp;gt;&amp;gt;checkout&lt;div&gt;&lt;br&gt;&lt;/div&gt;" style="edgeStyle=orthogonalEdgeStyle;rounded=0;orthogonalLoop=1;jettySize=auto;html=1;" edge="1" parent="1" source="udi-sgrB4QxTy8UD9Pej-10" target="udi-sgrB4QxTy8UD9Pej-22">
          <mxGeometry relative="1" as="geometry" />
        </mxCell>
        <mxCell id="udi-sgrB4QxTy8UD9Pej-10" value="payment gateway" style="shape=umlActor;verticalLabelPosition=bottom;verticalAlign=top;html=1;" vertex="1" parent="1">
          <mxGeometry x="860" y="360" width="30" height="60" as="geometry" />
        </mxCell>
        <mxCell id="udi-sgrB4QxTy8UD9Pej-65" style="edgeStyle=orthogonalEdgeStyle;rounded=0;orthogonalLoop=1;jettySize=auto;html=1;exitX=1;exitY=0.3333333333333333;exitDx=0;exitDy=0;exitPerimeter=0;entryX=0.5;entryY=1;entryDx=0;entryDy=0;" edge="1" parent="1" source="udi-sgrB4QxTy8UD9Pej-12" target="udi-sgrB4QxTy8UD9Pej-38">
          <mxGeometry relative="1" as="geometry" />
        </mxCell>
        <mxCell id="udi-sgrB4QxTy8UD9Pej-12" value="support agent" style="shape=umlActor;verticalLabelPosition=bottom;verticalAlign=top;html=1;" vertex="1" parent="1">
          <mxGeometry x="-200" y="980" width="30" height="60" as="geometry" />
        </mxCell>
        <mxCell id="udi-sgrB4QxTy8UD9Pej-44" style="edgeStyle=orthogonalEdgeStyle;rounded=0;orthogonalLoop=1;jettySize=auto;html=1;exitX=0.5;exitY=0.5;exitDx=0;exitDy=0;exitPerimeter=0;" edge="1" parent="1" source="udi-sgrB4QxTy8UD9Pej-15">
          <mxGeometry relative="1" as="geometry">
            <mxPoint x="140" y="270" as="targetPoint" />
          </mxGeometry>
        </mxCell>
        <mxCell id="udi-sgrB4QxTy8UD9Pej-15" value="guest" style="shape=umlActor;verticalLabelPosition=bottom;verticalAlign=top;html=1;" vertex="1" parent="1">
          <mxGeometry x="70" y="390" width="30" height="60" as="geometry" />
        </mxCell>
        <mxCell id="udi-sgrB4QxTy8UD9Pej-20" value="add to cart" style="ellipse;whiteSpace=wrap;html=1;" vertex="1" parent="1">
          <mxGeometry x="340" y="420" width="140" height="70" as="geometry" />
        </mxCell>
        <mxCell id="udi-sgrB4QxTy8UD9Pej-21" value="checkout" style="ellipse;whiteSpace=wrap;html=1;" vertex="1" parent="1">
          <mxGeometry x="495" y="450" width="140" height="70" as="geometry" />
        </mxCell>
        <mxCell id="udi-sgrB4QxTy8UD9Pej-22" value="make payment" style="ellipse;whiteSpace=wrap;html=1;" vertex="1" parent="1">
          <mxGeometry x="260" y="515" width="140" height="70" as="geometry" />
        </mxCell>
        <mxCell id="udi-sgrB4QxTy8UD9Pej-23" value="recieve confirmation" style="ellipse;whiteSpace=wrap;html=1;" vertex="1" parent="1">
          <mxGeometry x="550" y="610" width="140" height="70" as="geometry" />
        </mxCell>
        <mxCell id="udi-sgrB4QxTy8UD9Pej-24" value="mange account" style="ellipse;whiteSpace=wrap;html=1;" vertex="1" parent="1">
          <mxGeometry x="215" y="650" width="140" height="70" as="geometry" />
        </mxCell>
        <mxCell id="udi-sgrB4QxTy8UD9Pej-25" value="manage product" style="ellipse;whiteSpace=wrap;html=1;" vertex="1" parent="1">
          <mxGeometry x="510" y="730" width="140" height="70" as="geometry" />
        </mxCell>
        <mxCell id="udi-sgrB4QxTy8UD9Pej-27" value="Use Case" style="ellipse;whiteSpace=wrap;html=1;" vertex="1" parent="1">
          <mxGeometry x="230" y="790" width="140" height="70" as="geometry" />
        </mxCell>
        <mxCell id="udi-sgrB4QxTy8UD9Pej-28" value="track delivery" style="ellipse;whiteSpace=wrap;html=1;" vertex="1" parent="1">
          <mxGeometry x="320" y="960" width="140" height="70" as="geometry" />
        </mxCell>
        <mxCell id="udi-sgrB4QxTy8UD9Pej-29" value="manage users" style="ellipse;whiteSpace=wrap;html=1;" vertex="1" parent="1">
          <mxGeometry x="570" y="900" width="140" height="70" as="geometry" />
        </mxCell>
        <mxCell id="udi-sgrB4QxTy8UD9Pej-30" value="synce inventory" style="ellipse;whiteSpace=wrap;html=1;" vertex="1" parent="1">
          <mxGeometry x="560" y="1050" width="140" height="70" as="geometry" />
        </mxCell>
        <mxCell id="udi-sgrB4QxTy8UD9Pej-63" value="&amp;lt;&amp;lt;includer&amp;gt;&amp;gt;manage product" style="edgeStyle=orthogonalEdgeStyle;rounded=0;orthogonalLoop=1;jettySize=auto;html=1;" edge="1" parent="1" source="udi-sgrB4QxTy8UD9Pej-32" target="udi-sgrB4QxTy8UD9Pej-30">
          <mxGeometry relative="1" as="geometry" />
        </mxCell>
        <mxCell id="udi-sgrB4QxTy8UD9Pej-32" value="inventory system&amp;nbsp;" style="shape=umlActor;verticalLabelPosition=bottom;verticalAlign=top;html=1;" vertex="1" parent="1">
          <mxGeometry x="900" y="1080" width="30" height="60" as="geometry" />
        </mxCell>
        <mxCell id="udi-sgrB4QxTy8UD9Pej-34" value="register account" style="ellipse;whiteSpace=wrap;html=1;" vertex="1" parent="1">
          <mxGeometry x="290" y="100" width="140" height="70" as="geometry" />
        </mxCell>
        <mxCell id="udi-sgrB4QxTy8UD9Pej-35" value="login" style="ellipse;whiteSpace=wrap;html=1;" vertex="1" parent="1">
          <mxGeometry x="510" y="100" width="140" height="70" as="geometry" />
        </mxCell>
        <mxCell id="udi-sgrB4QxTy8UD9Pej-36" value="search product" style="ellipse;whiteSpace=wrap;html=1;" vertex="1" parent="1">
          <mxGeometry x="530" y="290" width="140" height="70" as="geometry" />
        </mxCell>
        <mxCell id="udi-sgrB4QxTy8UD9Pej-37" value="view product" style="ellipse;whiteSpace=wrap;html=1;" vertex="1" parent="1">
          <mxGeometry x="230" y="240" width="140" height="70" as="geometry" />
        </mxCell>
        <mxCell id="udi-sgrB4QxTy8UD9Pej-38" value="handle support" style="ellipse;whiteSpace=wrap;html=1;" vertex="1" parent="1">
          <mxGeometry x="370" y="1140" width="140" height="70" as="geometry" />
        </mxCell>
        <mxCell id="udi-sgrB4QxTy8UD9Pej-40" style="edgeStyle=orthogonalEdgeStyle;rounded=0;orthogonalLoop=1;jettySize=auto;html=1;" edge="1" parent="1">
          <mxGeometry relative="1" as="geometry">
            <mxPoint x="271.0102051443364" y="270" as="sourcePoint" />
            <mxPoint x="301.0102051443364" y="110" as="targetPoint" />
            <Array as="points">
              <mxPoint x="140" y="270" />
              <mxPoint x="140" y="110" />
            </Array>
          </mxGeometry>
        </mxCell>
        <mxCell id="udi-sgrB4QxTy8UD9Pej-43" style="edgeStyle=orthogonalEdgeStyle;rounded=0;orthogonalLoop=1;jettySize=auto;html=1;entryX=0.044;entryY=0.64;entryDx=0;entryDy=0;entryPerimeter=0;" edge="1" parent="1" source="udi-sgrB4QxTy8UD9Pej-7" target="udi-sgrB4QxTy8UD9Pej-37">
          <mxGeometry relative="1" as="geometry" />
        </mxCell>
        <mxCell id="udi-sgrB4QxTy8UD9Pej-46" value="&amp;lt;&amp;lt;include&amp;gt;&amp;gt;view product" style="edgeStyle=orthogonalEdgeStyle;rounded=0;orthogonalLoop=1;jettySize=auto;html=1;exitX=1;exitY=1;exitDx=0;exitDy=0;exitPerimeter=0;entryX=0.939;entryY=0.209;entryDx=0;entryDy=0;entryPerimeter=0;" edge="1" parent="1" source="udi-sgrB4QxTy8UD9Pej-7" target="udi-sgrB4QxTy8UD9Pej-20">
          <mxGeometry x="-0.0565" relative="1" as="geometry">
            <mxPoint as="offset" />
          </mxGeometry>
        </mxCell>
        <mxCell id="udi-sgrB4QxTy8UD9Pej-47" value="&amp;lt;&amp;lt;include&amp;gt;&amp;gt;add to cart &amp;lt;&amp;lt;include&amp;gt;&amp;gt;login&lt;div&gt;&lt;br&gt;&lt;/div&gt;" style="edgeStyle=orthogonalEdgeStyle;rounded=0;orthogonalLoop=1;jettySize=auto;html=1;exitX=1;exitY=1;exitDx=0;exitDy=0;exitPerimeter=0;entryX=0.214;entryY=0.571;entryDx=0;entryDy=0;entryPerimeter=0;" edge="1" parent="1" source="udi-sgrB4QxTy8UD9Pej-7" target="udi-sgrB4QxTy8UD9Pej-21">
          <mxGeometry relative="1" as="geometry" />
        </mxCell>
        <mxCell id="udi-sgrB4QxTy8UD9Pej-52" value="delivery service&lt;div&gt;&lt;br&gt;&lt;/div&gt;" style="shape=umlActor;verticalLabelPosition=bottom;verticalAlign=top;html=1;" vertex="1" parent="1">
          <mxGeometry y="730" width="30" height="60" as="geometry" />
        </mxCell>
        <mxCell id="udi-sgrB4QxTy8UD9Pej-55" value="&amp;lt;&amp;lt;include&amp;gt;&amp;gt;make payment&lt;div&gt;&lt;br&gt;&lt;/div&gt;" style="edgeStyle=orthogonalEdgeStyle;rounded=0;orthogonalLoop=1;jettySize=auto;html=1;entryX=0.929;entryY=0.571;entryDx=0;entryDy=0;entryPerimeter=0;" edge="1" parent="1" source="udi-sgrB4QxTy8UD9Pej-7" target="udi-sgrB4QxTy8UD9Pej-23">
          <mxGeometry relative="1" as="geometry" />
        </mxCell>
        <mxCell id="udi-sgrB4QxTy8UD9Pej-57" value="&amp;lt;&amp;lt;extend&amp;gt;&amp;gt;login" style="edgeStyle=orthogonalEdgeStyle;rounded=0;orthogonalLoop=1;jettySize=auto;html=1;entryX=0.203;entryY=0.857;entryDx=0;entryDy=0;entryPerimeter=0;" edge="1" parent="1" source="udi-sgrB4QxTy8UD9Pej-7" target="udi-sgrB4QxTy8UD9Pej-24">
          <mxGeometry relative="1" as="geometry" />
        </mxCell>
        <mxCell id="udi-sgrB4QxTy8UD9Pej-61" style="edgeStyle=orthogonalEdgeStyle;rounded=0;orthogonalLoop=1;jettySize=auto;html=1;entryX=0.913;entryY=0.749;entryDx=0;entryDy=0;entryPerimeter=0;" edge="1" parent="1" source="udi-sgrB4QxTy8UD9Pej-9" target="udi-sgrB4QxTy8UD9Pej-29">
          <mxGeometry relative="1" as="geometry" />
        </mxCell>
        <mxCell id="udi-sgrB4QxTy8UD9Pej-62" value="&amp;lt;&amp;lt;extend&amp;gt;&amp;gt; recieve confirmation&lt;div&gt;&lt;br&gt;&lt;/div&gt;" style="edgeStyle=orthogonalEdgeStyle;rounded=0;orthogonalLoop=1;jettySize=auto;html=1;entryX=0.627;entryY=0.891;entryDx=0;entryDy=0;entryPerimeter=0;" edge="1" parent="1" source="udi-sgrB4QxTy8UD9Pej-52" target="udi-sgrB4QxTy8UD9Pej-28">
          <mxGeometry relative="1" as="geometry">
            <Array as="points">
              <mxPoint x="390" y="760" />
              <mxPoint x="390" y="1012" />
            </Array>
          </mxGeometry>
        </mxCell>
      </root>
    </mxGraphModel>
  </diagram>
</mxfile>
